<svg id="visual" viewBox="0 0 960 540" width="960" height="540" xmlns="http://www.w3.org/2000/svg" xmlns:xlink="http://www.w3.org/1999/xlink" version="1.1"><path d="M0 239L13.3 253.7C26.7 268.3 53.3 297.7 80 299.3C106.7 301 133.3 275 160 269.5C186.7 264 213.3 279 240 290C266.7 301 293.3 308 320 291.2C346.7 274.3 373.3 233.7 400 224C426.7 214.3 453.3 235.7 480 238.2C506.7 240.7 533.3 224.3 560 222.7C586.7 221 613.3 234 640 244.5C666.7 255 693.3 263 720 279.7C746.7 296.3 773.3 321.7 800 310.3C826.7 299 853.3 251 880 229.7C906.7 208.3 933.3 213.7 946.7 216.3L960 219L960 541L946.7 541C933.3 541 906.7 541 880 541C853.3 541 826.7 541 800 541C773.3 541 746.7 541 720 541C693.3 541 666.7 541 640 541C613.3 541 586.7 541 560 541C533.3 541 506.7 541 480 541C453.3 541 426.7 541 400 541C373.3 541 346.7 541 320 541C293.3 541 266.7 541 240 541C213.3 541 186.7 541 160 541C133.3 541 106.7 541 80 541C53.3 541 26.7 541 13.3 541L0 541Z" fill="#944aed" stroke-linecap="round" stroke-linejoin="miter"></path></svg>